<mxfile host="app.diagrams.net" modified="2021-09-21T13:07:33.600Z" agent="5.0 (Windows)" etag="P759LIGXhk_USDQn00D0" version="15.2.9" type="github">
  <diagram id="iJiHooxQ-oz1hIhevUaH" name="Page-1">
    <mxGraphModel dx="1673" dy="885" grid="1" gridSize="10" guides="1" tooltips="1" connect="1" arrows="1" fold="1" page="1" pageScale="1" pageWidth="827" pageHeight="1169" math="0" shadow="0">
      <root>
        <mxCell id="0" />
        <mxCell id="1" parent="0" />
        <mxCell id="I_DvOhb7d0Lh7Mm7Guor-1" value="Employee" style="swimlane;fontStyle=1;align=center;verticalAlign=top;childLayout=stackLayout;horizontal=1;startSize=26;horizontalStack=0;resizeParent=1;resizeParentMax=0;resizeLast=0;collapsible=1;marginBottom=0;" parent="1" vertex="1">
          <mxGeometry x="600" y="279" width="260" height="252" as="geometry" />
        </mxCell>
        <mxCell id="I_DvOhb7d0Lh7Mm7Guor-27" value="+ FirstName: String" style="text;strokeColor=none;fillColor=none;align=left;verticalAlign=top;spacingLeft=4;spacingRight=4;overflow=hidden;rotatable=0;points=[[0,0.5],[1,0.5]];portConstraint=eastwest;" parent="I_DvOhb7d0Lh7Mm7Guor-1" vertex="1">
          <mxGeometry y="26" width="260" height="26" as="geometry" />
        </mxCell>
        <mxCell id="I_DvOhb7d0Lh7Mm7Guor-48" value="+ LastName: String" style="text;strokeColor=none;fillColor=none;align=left;verticalAlign=top;spacingLeft=4;spacingRight=4;overflow=hidden;rotatable=0;points=[[0,0.5],[1,0.5]];portConstraint=eastwest;" parent="I_DvOhb7d0Lh7Mm7Guor-1" vertex="1">
          <mxGeometry y="52" width="260" height="26" as="geometry" />
        </mxCell>
        <mxCell id="I_DvOhb7d0Lh7Mm7Guor-54" value="+ DateOfEmployment: DateTime" style="text;strokeColor=none;fillColor=none;align=left;verticalAlign=top;spacingLeft=4;spacingRight=4;overflow=hidden;rotatable=0;points=[[0,0.5],[1,0.5]];portConstraint=eastwest;" parent="I_DvOhb7d0Lh7Mm7Guor-1" vertex="1">
          <mxGeometry y="78" width="260" height="26" as="geometry" />
        </mxCell>
        <mxCell id="I_DvOhb7d0Lh7Mm7Guor-28" value="+ IsFired: Boolean = False" style="text;strokeColor=none;fillColor=none;align=left;verticalAlign=top;spacingLeft=4;spacingRight=4;overflow=hidden;rotatable=0;points=[[0,0.5],[1,0.5]];portConstraint=eastwest;" parent="I_DvOhb7d0Lh7Mm7Guor-1" vertex="1">
          <mxGeometry y="104" width="260" height="26" as="geometry" />
        </mxCell>
        <mxCell id="Z-J2dvbDeJ1SSTfuHnfh-3" value="+ Role: Role" style="text;strokeColor=none;fillColor=none;align=left;verticalAlign=top;spacingLeft=4;spacingRight=4;overflow=hidden;rotatable=0;points=[[0,0.5],[1,0.5]];portConstraint=eastwest;" parent="I_DvOhb7d0Lh7Mm7Guor-1" vertex="1">
          <mxGeometry y="130" width="260" height="26" as="geometry" />
        </mxCell>
        <mxCell id="I_DvOhb7d0Lh7Mm7Guor-3" value="" style="line;strokeWidth=1;fillColor=none;align=left;verticalAlign=middle;spacingTop=-1;spacingLeft=3;spacingRight=3;rotatable=0;labelPosition=right;points=[];portConstraint=eastwest;" parent="I_DvOhb7d0Lh7Mm7Guor-1" vertex="1">
          <mxGeometry y="156" width="260" height="8" as="geometry" />
        </mxCell>
        <mxCell id="Z-J2dvbDeJ1SSTfuHnfh-6" value="+ Employee(fName:string, lName: string, &#xa;      dateOfEmployment: DateTime, role: Role)" style="text;strokeColor=none;fillColor=none;align=left;verticalAlign=top;spacingLeft=4;spacingRight=4;overflow=hidden;rotatable=0;points=[[0,0.5],[1,0.5]];portConstraint=eastwest;" parent="I_DvOhb7d0Lh7Mm7Guor-1" vertex="1">
          <mxGeometry y="164" width="260" height="36" as="geometry" />
        </mxCell>
        <mxCell id="I_DvOhb7d0Lh7Mm7Guor-4" value="+ FullName(): String" style="text;strokeColor=none;fillColor=none;align=left;verticalAlign=top;spacingLeft=4;spacingRight=4;overflow=hidden;rotatable=0;points=[[0,0.5],[1,0.5]];portConstraint=eastwest;" parent="I_DvOhb7d0Lh7Mm7Guor-1" vertex="1">
          <mxGeometry y="200" width="260" height="26" as="geometry" />
        </mxCell>
        <mxCell id="Z-J2dvbDeJ1SSTfuHnfh-5" value="+ ToString(): String" style="text;strokeColor=none;fillColor=none;align=left;verticalAlign=top;spacingLeft=4;spacingRight=4;overflow=hidden;rotatable=0;points=[[0,0.5],[1,0.5]];portConstraint=eastwest;" parent="I_DvOhb7d0Lh7Mm7Guor-1" vertex="1">
          <mxGeometry y="226" width="260" height="26" as="geometry" />
        </mxCell>
        <mxCell id="I_DvOhb7d0Lh7Mm7Guor-5" value="Department&#xa;" style="swimlane;fontStyle=1;align=center;verticalAlign=top;childLayout=stackLayout;horizontal=1;startSize=26;horizontalStack=0;resizeParent=1;resizeParentMax=0;resizeLast=0;collapsible=1;marginBottom=0;" parent="1" vertex="1">
          <mxGeometry x="340" y="279" width="200" height="176" as="geometry" />
        </mxCell>
        <mxCell id="I_DvOhb7d0Lh7Mm7Guor-20" value="+ ID: Int" style="text;strokeColor=none;fillColor=none;align=left;verticalAlign=top;spacingLeft=4;spacingRight=4;overflow=hidden;rotatable=0;points=[[0,0.5],[1,0.5]];portConstraint=eastwest;" parent="I_DvOhb7d0Lh7Mm7Guor-5" vertex="1">
          <mxGeometry y="26" width="200" height="26" as="geometry" />
        </mxCell>
        <mxCell id="I_DvOhb7d0Lh7Mm7Guor-21" value="+ Name: String" style="text;strokeColor=none;fillColor=none;align=left;verticalAlign=top;spacingLeft=4;spacingRight=4;overflow=hidden;rotatable=0;points=[[0,0.5],[1,0.5]];portConstraint=eastwest;" parent="I_DvOhb7d0Lh7Mm7Guor-5" vertex="1">
          <mxGeometry y="52" width="200" height="26" as="geometry" />
        </mxCell>
        <mxCell id="Z-J2dvbDeJ1SSTfuHnfh-9" value="+ Employees: List&lt;IEmployee&gt;" style="text;strokeColor=none;fillColor=none;align=left;verticalAlign=top;spacingLeft=4;spacingRight=4;overflow=hidden;rotatable=0;points=[[0,0.5],[1,0.5]];portConstraint=eastwest;" parent="I_DvOhb7d0Lh7Mm7Guor-5" vertex="1">
          <mxGeometry y="78" width="200" height="26" as="geometry" />
        </mxCell>
        <mxCell id="I_DvOhb7d0Lh7Mm7Guor-7" value="" style="line;strokeWidth=1;fillColor=none;align=left;verticalAlign=middle;spacingTop=-1;spacingLeft=3;spacingRight=3;rotatable=0;labelPosition=right;points=[];portConstraint=eastwest;" parent="I_DvOhb7d0Lh7Mm7Guor-5" vertex="1">
          <mxGeometry y="104" width="200" height="8" as="geometry" />
        </mxCell>
        <mxCell id="Z-J2dvbDeJ1SSTfuHnfh-10" value="+ Department(id: int, name: string, &#xa;       employees: List&lt;IEmployee&gt;)" style="text;strokeColor=none;fillColor=none;align=left;verticalAlign=top;spacingLeft=4;spacingRight=4;overflow=hidden;rotatable=0;points=[[0,0.5],[1,0.5]];portConstraint=eastwest;" parent="I_DvOhb7d0Lh7Mm7Guor-5" vertex="1">
          <mxGeometry y="112" width="200" height="38" as="geometry" />
        </mxCell>
        <mxCell id="Z-J2dvbDeJ1SSTfuHnfh-11" value="+ ToString(): String" style="text;strokeColor=none;fillColor=none;align=left;verticalAlign=top;spacingLeft=4;spacingRight=4;overflow=hidden;rotatable=0;points=[[0,0.5],[1,0.5]];portConstraint=eastwest;" parent="I_DvOhb7d0Lh7Mm7Guor-5" vertex="1">
          <mxGeometry y="150" width="200" height="26" as="geometry" />
        </mxCell>
        <mxCell id="I_DvOhb7d0Lh7Mm7Guor-29" value="Role" style="swimlane;fontStyle=1;align=center;verticalAlign=top;childLayout=stackLayout;horizontal=1;startSize=26;horizontalStack=0;resizeParent=1;resizeParentMax=0;resizeLast=0;collapsible=1;marginBottom=0;" parent="1" vertex="1">
          <mxGeometry x="920" y="279" width="180" height="138" as="geometry" />
        </mxCell>
        <mxCell id="I_DvOhb7d0Lh7Mm7Guor-33" value="+ ID: String" style="text;strokeColor=none;fillColor=none;align=left;verticalAlign=top;spacingLeft=4;spacingRight=4;overflow=hidden;rotatable=0;points=[[0,0.5],[1,0.5]];portConstraint=eastwest;" parent="I_DvOhb7d0Lh7Mm7Guor-29" vertex="1">
          <mxGeometry y="26" width="180" height="26" as="geometry" />
        </mxCell>
        <mxCell id="I_DvOhb7d0Lh7Mm7Guor-34" value="+ Title: String" style="text;strokeColor=none;fillColor=none;align=left;verticalAlign=top;spacingLeft=4;spacingRight=4;overflow=hidden;rotatable=0;points=[[0,0.5],[1,0.5]];portConstraint=eastwest;" parent="I_DvOhb7d0Lh7Mm7Guor-29" vertex="1">
          <mxGeometry y="52" width="180" height="26" as="geometry" />
        </mxCell>
        <mxCell id="I_DvOhb7d0Lh7Mm7Guor-31" value="" style="line;strokeWidth=1;fillColor=none;align=left;verticalAlign=middle;spacingTop=-1;spacingLeft=3;spacingRight=3;rotatable=0;labelPosition=right;points=[];portConstraint=eastwest;" parent="I_DvOhb7d0Lh7Mm7Guor-29" vertex="1">
          <mxGeometry y="78" width="180" height="8" as="geometry" />
        </mxCell>
        <mxCell id="I_DvOhb7d0Lh7Mm7Guor-32" value="+ Role(id: int, title; string)" style="text;strokeColor=none;fillColor=none;align=left;verticalAlign=top;spacingLeft=4;spacingRight=4;overflow=hidden;rotatable=0;points=[[0,0.5],[1,0.5]];portConstraint=eastwest;" parent="I_DvOhb7d0Lh7Mm7Guor-29" vertex="1">
          <mxGeometry y="86" width="180" height="26" as="geometry" />
        </mxCell>
        <mxCell id="Z-J2dvbDeJ1SSTfuHnfh-34" value="+ ToString(): String" style="text;strokeColor=none;fillColor=none;align=left;verticalAlign=top;spacingLeft=4;spacingRight=4;overflow=hidden;rotatable=0;points=[[0,0.5],[1,0.5]];portConstraint=eastwest;" parent="I_DvOhb7d0Lh7Mm7Guor-29" vertex="1">
          <mxGeometry y="112" width="180" height="26" as="geometry" />
        </mxCell>
        <mxCell id="I_DvOhb7d0Lh7Mm7Guor-35" value="StandardMessages" style="swimlane;fontStyle=1;align=center;verticalAlign=top;childLayout=stackLayout;horizontal=1;startSize=26;horizontalStack=0;resizeParent=1;resizeParentMax=0;resizeLast=0;collapsible=1;marginBottom=0;" parent="1" vertex="1">
          <mxGeometry x="920" y="650" width="190" height="112" as="geometry" />
        </mxCell>
        <mxCell id="I_DvOhb7d0Lh7Mm7Guor-37" value="" style="line;strokeWidth=1;fillColor=none;align=left;verticalAlign=middle;spacingTop=-1;spacingLeft=3;spacingRight=3;rotatable=0;labelPosition=right;points=[];portConstraint=eastwest;" parent="I_DvOhb7d0Lh7Mm7Guor-35" vertex="1">
          <mxGeometry y="26" width="190" height="8" as="geometry" />
        </mxCell>
        <mxCell id="I_DvOhb7d0Lh7Mm7Guor-38" value="+ DisplayStartupText(): Void" style="text;strokeColor=none;fillColor=none;align=left;verticalAlign=top;spacingLeft=4;spacingRight=4;overflow=hidden;rotatable=0;points=[[0,0.5],[1,0.5]];portConstraint=eastwest;" parent="I_DvOhb7d0Lh7Mm7Guor-35" vertex="1">
          <mxGeometry y="34" width="190" height="26" as="geometry" />
        </mxCell>
        <mxCell id="Z-J2dvbDeJ1SSTfuHnfh-27" value="+ DisplayExitProgram(): Void" style="text;strokeColor=none;fillColor=none;align=left;verticalAlign=top;spacingLeft=4;spacingRight=4;overflow=hidden;rotatable=0;points=[[0,0.5],[1,0.5]];portConstraint=eastwest;" parent="I_DvOhb7d0Lh7Mm7Guor-35" vertex="1">
          <mxGeometry y="60" width="190" height="26" as="geometry" />
        </mxCell>
        <mxCell id="Z-J2dvbDeJ1SSTfuHnfh-28" value="+ DisplayHrLine(): Void" style="text;strokeColor=none;fillColor=none;align=left;verticalAlign=top;spacingLeft=4;spacingRight=4;overflow=hidden;rotatable=0;points=[[0,0.5],[1,0.5]];portConstraint=eastwest;" parent="I_DvOhb7d0Lh7Mm7Guor-35" vertex="1">
          <mxGeometry y="86" width="190" height="26" as="geometry" />
        </mxCell>
        <mxCell id="O3MJyxwNwP9tG67ijSce-1" value="ConsoleUI" style="swimlane;fontStyle=1;align=center;verticalAlign=top;childLayout=stackLayout;horizontal=1;startSize=26;horizontalStack=0;resizeParent=1;resizeParentMax=0;resizeLast=0;collapsible=1;marginBottom=0;" parent="1" vertex="1">
          <mxGeometry x="490" y="650" width="369" height="100" as="geometry" />
        </mxCell>
        <mxCell id="O3MJyxwNwP9tG67ijSce-3" value="" style="line;strokeWidth=1;fillColor=none;align=left;verticalAlign=middle;spacingTop=-1;spacingLeft=3;spacingRight=3;rotatable=0;labelPosition=right;points=[];portConstraint=eastwest;" parent="O3MJyxwNwP9tG67ijSce-1" vertex="1">
          <mxGeometry y="26" width="369" height="8" as="geometry" />
        </mxCell>
        <mxCell id="O3MJyxwNwP9tG67ijSce-5" value="+ MenuInteract(company: ICompany, employees: List&lt;IEmployee&gt;,&#xa;        departments: List&lt;IDepartment&gt;,roles: List&lt;IRole&gt;)" style="text;strokeColor=none;fillColor=none;align=left;verticalAlign=top;spacingLeft=4;spacingRight=4;overflow=hidden;rotatable=0;points=[[0,0.5],[1,0.5]];portConstraint=eastwest;" parent="O3MJyxwNwP9tG67ijSce-1" vertex="1">
          <mxGeometry y="34" width="369" height="40" as="geometry" />
        </mxCell>
        <mxCell id="O3MJyxwNwP9tG67ijSce-4" value="+ DisplayMenu(): Void" style="text;strokeColor=none;fillColor=none;align=left;verticalAlign=top;spacingLeft=4;spacingRight=4;overflow=hidden;rotatable=0;points=[[0,0.5],[1,0.5]];portConstraint=eastwest;" parent="O3MJyxwNwP9tG67ijSce-1" vertex="1">
          <mxGeometry y="74" width="369" height="26" as="geometry" />
        </mxCell>
        <mxCell id="O3MJyxwNwP9tG67ijSce-6" value="CreateData" style="swimlane;fontStyle=1;align=center;verticalAlign=top;childLayout=stackLayout;horizontal=1;startSize=26;horizontalStack=0;resizeParent=1;resizeParentMax=0;resizeLast=0;collapsible=1;marginBottom=0;" parent="1" vertex="1">
          <mxGeometry x="50" y="650" width="360" height="258" as="geometry" />
        </mxCell>
        <mxCell id="O3MJyxwNwP9tG67ijSce-8" value="" style="line;strokeWidth=1;fillColor=none;align=left;verticalAlign=middle;spacingTop=-1;spacingLeft=3;spacingRight=3;rotatable=0;labelPosition=right;points=[];portConstraint=eastwest;" parent="O3MJyxwNwP9tG67ijSce-6" vertex="1">
          <mxGeometry y="26" width="360" height="8" as="geometry" />
        </mxCell>
        <mxCell id="O3MJyxwNwP9tG67ijSce-10" value="+ AddRoles(): List&lt;IRole&gt;" style="text;strokeColor=none;fillColor=none;align=left;verticalAlign=top;spacingLeft=4;spacingRight=4;overflow=hidden;rotatable=0;points=[[0,0.5],[1,0.5]];portConstraint=eastwest;" parent="O3MJyxwNwP9tG67ijSce-6" vertex="1">
          <mxGeometry y="34" width="360" height="26" as="geometry" />
        </mxCell>
        <mxCell id="O3MJyxwNwP9tG67ijSce-11" value="+ AddEmployees(roles: List&lt;IRole&gt;): List&lt;IEmployee&gt;" style="text;strokeColor=none;fillColor=none;align=left;verticalAlign=top;spacingLeft=4;spacingRight=4;overflow=hidden;rotatable=0;points=[[0,0.5],[1,0.5]];portConstraint=eastwest;" parent="O3MJyxwNwP9tG67ijSce-6" vertex="1">
          <mxGeometry y="60" width="360" height="26" as="geometry" />
        </mxCell>
        <mxCell id="O3MJyxwNwP9tG67ijSce-12" value="+ AddDepartments(): List&lt;IDepartment&gt;" style="text;strokeColor=none;fillColor=none;align=left;verticalAlign=top;spacingLeft=4;spacingRight=4;overflow=hidden;rotatable=0;points=[[0,0.5],[1,0.5]];portConstraint=eastwest;" parent="O3MJyxwNwP9tG67ijSce-6" vertex="1">
          <mxGeometry y="86" width="360" height="26" as="geometry" />
        </mxCell>
        <mxCell id="O3MJyxwNwP9tG67ijSce-18" value="+ AssignToDepartment(departments: List&lt;IDepartment&gt;,&#xa;        employees: List&lt;IEmployee&gt;)&#xa;&#xa;" style="text;strokeColor=none;fillColor=none;align=left;verticalAlign=top;spacingLeft=4;spacingRight=4;overflow=hidden;rotatable=0;points=[[0,0.5],[1,0.5]];portConstraint=eastwest;" parent="O3MJyxwNwP9tG67ijSce-6" vertex="1">
          <mxGeometry y="112" width="360" height="40" as="geometry" />
        </mxCell>
        <mxCell id="Z-J2dvbDeJ1SSTfuHnfh-30" value="+ AssignEmployeeToDepartment(employees: List&lt;IEmployee&gt;,&#xa;       departments: List&lt;IDepartment&gt;, id: int): Void&#xa;" style="text;strokeColor=none;fillColor=none;align=left;verticalAlign=top;spacingLeft=4;spacingRight=4;overflow=hidden;rotatable=0;points=[[0,0.5],[1,0.5]];portConstraint=eastwest;" parent="O3MJyxwNwP9tG67ijSce-6" vertex="1">
          <mxGeometry y="152" width="360" height="40" as="geometry" />
        </mxCell>
        <mxCell id="O3MJyxwNwP9tG67ijSce-9" value="+ AddEmployee(employees: List&lt;IEmployee&gt;, &#xa;        employee: Employee): Void" style="text;strokeColor=none;fillColor=none;align=left;verticalAlign=top;spacingLeft=4;spacingRight=4;overflow=hidden;rotatable=0;points=[[0,0.5],[1,0.5]];portConstraint=eastwest;" parent="O3MJyxwNwP9tG67ijSce-6" vertex="1">
          <mxGeometry y="192" width="360" height="40" as="geometry" />
        </mxCell>
        <mxCell id="Z-J2dvbDeJ1SSTfuHnfh-32" value="+ ToDate(str: string): DateTime" style="text;strokeColor=none;fillColor=none;align=left;verticalAlign=top;spacingLeft=4;spacingRight=4;overflow=hidden;rotatable=0;points=[[0,0.5],[1,0.5]];portConstraint=eastwest;" parent="O3MJyxwNwP9tG67ijSce-6" vertex="1">
          <mxGeometry y="232" width="360" height="26" as="geometry" />
        </mxCell>
        <mxCell id="O3MJyxwNwP9tG67ijSce-13" value="DisplayTable" style="swimlane;fontStyle=1;align=center;verticalAlign=top;childLayout=stackLayout;horizontal=1;startSize=26;horizontalStack=0;resizeParent=1;resizeParentMax=0;resizeLast=0;collapsible=1;marginBottom=0;" parent="1" vertex="1">
          <mxGeometry x="490" y="830" width="370" height="216" as="geometry" />
        </mxCell>
        <mxCell id="O3MJyxwNwP9tG67ijSce-15" value="" style="line;strokeWidth=1;fillColor=none;align=left;verticalAlign=middle;spacingTop=-1;spacingLeft=3;spacingRight=3;rotatable=0;labelPosition=right;points=[];portConstraint=eastwest;" parent="O3MJyxwNwP9tG67ijSce-13" vertex="1">
          <mxGeometry y="26" width="370" height="8" as="geometry" />
        </mxCell>
        <mxCell id="O3MJyxwNwP9tG67ijSce-17" value="+ TableEmployees(employees: List&lt;IEmployee&gt;)" style="text;strokeColor=none;fillColor=none;align=left;verticalAlign=top;spacingLeft=4;spacingRight=4;overflow=hidden;rotatable=0;points=[[0,0.5],[1,0.5]];portConstraint=eastwest;" parent="O3MJyxwNwP9tG67ijSce-13" vertex="1">
          <mxGeometry y="34" width="370" height="26" as="geometry" />
        </mxCell>
        <mxCell id="O3MJyxwNwP9tG67ijSce-19" value="+ TableRoles(roles: List&lt;IRole&gt;)" style="text;strokeColor=none;fillColor=none;align=left;verticalAlign=top;spacingLeft=4;spacingRight=4;overflow=hidden;rotatable=0;points=[[0,0.5],[1,0.5]];portConstraint=eastwest;" parent="O3MJyxwNwP9tG67ijSce-13" vertex="1">
          <mxGeometry y="60" width="370" height="26" as="geometry" />
        </mxCell>
        <mxCell id="O3MJyxwNwP9tG67ijSce-20" value="+ TableDepartments(departments: List&lt;IDepartment&gt;)" style="text;strokeColor=none;fillColor=none;align=left;verticalAlign=top;spacingLeft=4;spacingRight=4;overflow=hidden;rotatable=0;points=[[0,0.5],[1,0.5]];portConstraint=eastwest;" parent="O3MJyxwNwP9tG67ijSce-13" vertex="1">
          <mxGeometry y="86" width="370" height="26" as="geometry" />
        </mxCell>
        <mxCell id="Z-J2dvbDeJ1SSTfuHnfh-23" value="+ TableDepartmentEmployees(departments: List&lt;IDepartment&gt;)" style="text;strokeColor=none;fillColor=none;align=left;verticalAlign=top;spacingLeft=4;spacingRight=4;overflow=hidden;rotatable=0;points=[[0,0.5],[1,0.5]];portConstraint=eastwest;" parent="O3MJyxwNwP9tG67ijSce-13" vertex="1">
          <mxGeometry y="112" width="370" height="26" as="geometry" />
        </mxCell>
        <mxCell id="Z-J2dvbDeJ1SSTfuHnfh-25" value="+ TableHeaderDepartment()" style="text;strokeColor=none;fillColor=none;align=left;verticalAlign=top;spacingLeft=4;spacingRight=4;overflow=hidden;rotatable=0;points=[[0,0.5],[1,0.5]];portConstraint=eastwest;" parent="O3MJyxwNwP9tG67ijSce-13" vertex="1">
          <mxGeometry y="138" width="370" height="26" as="geometry" />
        </mxCell>
        <mxCell id="Z-J2dvbDeJ1SSTfuHnfh-24" value="+ TableHeaderRole()" style="text;strokeColor=none;fillColor=none;align=left;verticalAlign=top;spacingLeft=4;spacingRight=4;overflow=hidden;rotatable=0;points=[[0,0.5],[1,0.5]];portConstraint=eastwest;" parent="O3MJyxwNwP9tG67ijSce-13" vertex="1">
          <mxGeometry y="164" width="370" height="26" as="geometry" />
        </mxCell>
        <mxCell id="O3MJyxwNwP9tG67ijSce-16" value="+ TableHeaderEmployee()" style="text;strokeColor=none;fillColor=none;align=left;verticalAlign=top;spacingLeft=4;spacingRight=4;overflow=hidden;rotatable=0;points=[[0,0.5],[1,0.5]];portConstraint=eastwest;" parent="O3MJyxwNwP9tG67ijSce-13" vertex="1">
          <mxGeometry y="190" width="370" height="26" as="geometry" />
        </mxCell>
        <mxCell id="O3MJyxwNwP9tG67ijSce-23" value="CaptureData" style="swimlane;fontStyle=1;align=center;verticalAlign=top;childLayout=stackLayout;horizontal=1;startSize=26;horizontalStack=0;resizeParent=1;resizeParentMax=0;resizeLast=0;collapsible=1;marginBottom=0;" parent="1" vertex="1">
          <mxGeometry x="50" y="970" width="339" height="86" as="geometry" />
        </mxCell>
        <mxCell id="O3MJyxwNwP9tG67ijSce-25" value="" style="line;strokeWidth=1;fillColor=none;align=left;verticalAlign=middle;spacingTop=-1;spacingLeft=3;spacingRight=3;rotatable=0;labelPosition=right;points=[];portConstraint=eastwest;" parent="O3MJyxwNwP9tG67ijSce-23" vertex="1">
          <mxGeometry y="26" width="339" height="8" as="geometry" />
        </mxCell>
        <mxCell id="O3MJyxwNwP9tG67ijSce-26" value="+ CaptureEmployee(roles: List&lt;IRole&gt;): Employee" style="text;strokeColor=none;fillColor=none;align=left;verticalAlign=top;spacingLeft=4;spacingRight=4;overflow=hidden;rotatable=0;points=[[0,0.5],[1,0.5]];portConstraint=eastwest;" parent="O3MJyxwNwP9tG67ijSce-23" vertex="1">
          <mxGeometry y="34" width="339" height="26" as="geometry" />
        </mxCell>
        <mxCell id="O3MJyxwNwP9tG67ijSce-29" value="+ CaptureDepartmentId(departments List&lt;IDepartment&gt;): Int" style="text;strokeColor=none;fillColor=none;align=left;verticalAlign=top;spacingLeft=4;spacingRight=4;overflow=hidden;rotatable=0;points=[[0,0.5],[1,0.5]];portConstraint=eastwest;" parent="O3MJyxwNwP9tG67ijSce-23" vertex="1">
          <mxGeometry y="60" width="339" height="26" as="geometry" />
        </mxCell>
        <mxCell id="Z-J2dvbDeJ1SSTfuHnfh-37" value="" style="endArrow=open;html=1;startArrow=diamondThin;startFill=0;strokeWidth=1;endSize=12;startSize=12;endFill=0;" parent="1" edge="1">
          <mxGeometry width="50" height="50" relative="1" as="geometry">
            <mxPoint x="540" y="380" as="sourcePoint" />
            <mxPoint x="600" y="379.58000000000015" as="targetPoint" />
          </mxGeometry>
        </mxCell>
        <mxCell id="Z-J2dvbDeJ1SSTfuHnfh-49" value="" style="endArrow=open;endFill=0;endSize=12;html=1;entryX=1.003;entryY=0.231;entryDx=0;entryDy=0;entryPerimeter=0;" parent="1" target="O3MJyxwNwP9tG67ijSce-26" edge="1">
          <mxGeometry width="160" relative="1" as="geometry">
            <mxPoint x="488" y="730" as="sourcePoint" />
            <mxPoint x="437" y="1010" as="targetPoint" />
            <Array as="points">
              <mxPoint x="450" y="730" />
              <mxPoint x="450" y="1010" />
            </Array>
          </mxGeometry>
        </mxCell>
        <mxCell id="Z-J2dvbDeJ1SSTfuHnfh-18" value="" style="endArrow=open;html=1;startArrow=diamondThin;startFill=0;strokeWidth=1;endSize=12;startSize=12;endFill=0;entryX=0;entryY=0.846;entryDx=0;entryDy=0;entryPerimeter=0;" parent="1" target="Z-J2dvbDeJ1SSTfuHnfh-9" edge="1">
          <mxGeometry width="50" height="50" relative="1" as="geometry">
            <mxPoint x="280" y="379.4100000000001" as="sourcePoint" />
            <mxPoint x="320" y="379" as="targetPoint" />
          </mxGeometry>
        </mxCell>
        <mxCell id="9e8dpLW64dKt-voAxynq-5" value="Company" style="swimlane;fontStyle=1;align=center;verticalAlign=top;childLayout=stackLayout;horizontal=1;startSize=26;horizontalStack=0;resizeParent=1;resizeParentMax=0;resizeLast=0;collapsible=1;marginBottom=0;" parent="1" vertex="1">
          <mxGeometry x="40" y="279" width="240" height="272" as="geometry" />
        </mxCell>
        <mxCell id="9e8dpLW64dKt-voAxynq-6" value="+ Name: String&#xa;" style="text;strokeColor=none;fillColor=none;align=left;verticalAlign=top;spacingLeft=4;spacingRight=4;overflow=hidden;rotatable=0;points=[[0,0.5],[1,0.5]];portConstraint=eastwest;" parent="9e8dpLW64dKt-voAxynq-5" vertex="1">
          <mxGeometry y="26" width="240" height="26" as="geometry" />
        </mxCell>
        <mxCell id="9e8dpLW64dKt-voAxynq-7" value="+ Address: String" style="text;strokeColor=none;fillColor=none;align=left;verticalAlign=top;spacingLeft=4;spacingRight=4;overflow=hidden;rotatable=0;points=[[0,0.5],[1,0.5]];portConstraint=eastwest;" parent="9e8dpLW64dKt-voAxynq-5" vertex="1">
          <mxGeometry y="52" width="240" height="26" as="geometry" />
        </mxCell>
        <mxCell id="9e8dpLW64dKt-voAxynq-8" value="+ OrganizationNumber: String" style="text;strokeColor=none;fillColor=none;align=left;verticalAlign=top;spacingLeft=4;spacingRight=4;overflow=hidden;rotatable=0;points=[[0,0.5],[1,0.5]];portConstraint=eastwest;" parent="9e8dpLW64dKt-voAxynq-5" vertex="1">
          <mxGeometry y="78" width="240" height="26" as="geometry" />
        </mxCell>
        <mxCell id="9e8dpLW64dKt-voAxynq-9" value="+ URL: String" style="text;strokeColor=none;fillColor=none;align=left;verticalAlign=top;spacingLeft=4;spacingRight=4;overflow=hidden;rotatable=0;points=[[0,0.5],[1,0.5]];portConstraint=eastwest;" parent="9e8dpLW64dKt-voAxynq-5" vertex="1">
          <mxGeometry y="104" width="240" height="26" as="geometry" />
        </mxCell>
        <mxCell id="9e8dpLW64dKt-voAxynq-10" value="+ Departments: List&lt;IDepartment&gt;" style="text;strokeColor=none;fillColor=none;align=left;verticalAlign=top;spacingLeft=4;spacingRight=4;overflow=hidden;rotatable=0;points=[[0,0.5],[1,0.5]];portConstraint=eastwest;" parent="9e8dpLW64dKt-voAxynq-5" vertex="1">
          <mxGeometry y="130" width="240" height="26" as="geometry" />
        </mxCell>
        <mxCell id="9e8dpLW64dKt-voAxynq-11" value="" style="line;strokeWidth=1;fillColor=none;align=left;verticalAlign=middle;spacingTop=-1;spacingLeft=3;spacingRight=3;rotatable=0;labelPosition=right;points=[];portConstraint=eastwest;" parent="9e8dpLW64dKt-voAxynq-5" vertex="1">
          <mxGeometry y="156" width="240" height="8" as="geometry" />
        </mxCell>
        <mxCell id="9e8dpLW64dKt-voAxynq-12" value="+ Company(name: String, address: String&#xa;        orgnr: String  url: String,&#xa;         departments List&lt;IDepartment&gt;) " style="text;strokeColor=none;fillColor=none;align=left;verticalAlign=top;spacingLeft=4;spacingRight=4;overflow=hidden;rotatable=0;points=[[0,0.5],[1,0.5]];portConstraint=eastwest;" parent="9e8dpLW64dKt-voAxynq-5" vertex="1">
          <mxGeometry y="164" width="240" height="56" as="geometry" />
        </mxCell>
        <mxCell id="9e8dpLW64dKt-voAxynq-13" value="+ GetNumberOfEmployees(): Int" style="text;strokeColor=none;fillColor=none;align=left;verticalAlign=top;spacingLeft=4;spacingRight=4;overflow=hidden;rotatable=0;points=[[0,0.5],[1,0.5]];portConstraint=eastwest;" parent="9e8dpLW64dKt-voAxynq-5" vertex="1">
          <mxGeometry y="220" width="240" height="26" as="geometry" />
        </mxCell>
        <mxCell id="9e8dpLW64dKt-voAxynq-15" value="+ ToString(): String" style="text;strokeColor=none;fillColor=none;align=left;verticalAlign=top;spacingLeft=4;spacingRight=4;overflow=hidden;rotatable=0;points=[[0,0.5],[1,0.5]];portConstraint=eastwest;" parent="9e8dpLW64dKt-voAxynq-5" vertex="1">
          <mxGeometry y="246" width="240" height="26" as="geometry" />
        </mxCell>
        <mxCell id="9e8dpLW64dKt-voAxynq-19" value="&lt;p style=&quot;margin: 0px ; margin-top: 4px ; text-align: center&quot;&gt;&lt;i&gt;&amp;lt;&amp;lt;Interface&amp;gt;&amp;gt;&lt;/i&gt;&lt;br&gt;&lt;b&gt;ICompany&lt;/b&gt;&lt;/p&gt;&lt;hr size=&quot;1&quot;&gt;&lt;p style=&quot;margin: 0px ; margin-left: 4px&quot;&gt;+ Address: String&lt;br&gt;+ Departments: List&amp;lt;IDepartment&amp;gt;&lt;/p&gt;&lt;p style=&quot;margin: 0px ; margin-left: 4px&quot;&gt;+ Name: String&lt;/p&gt;&lt;p style=&quot;margin: 0px ; margin-left: 4px&quot;&gt;+ OrganizationNumber: String&lt;/p&gt;&lt;p style=&quot;margin: 0px ; margin-left: 4px&quot;&gt;+ URL: String&lt;br&gt;&lt;/p&gt;&lt;hr size=&quot;1&quot;&gt;&lt;p style=&quot;margin: 0px ; margin-left: 4px&quot;&gt;+ GetNumberOfEmployees(): Int&lt;span&gt;&lt;br&gt;&lt;/span&gt;&lt;/p&gt;&lt;p style=&quot;margin: 0px ; margin-left: 4px&quot;&gt;+ GetDetails(): Void&lt;br&gt;&lt;/p&gt;" style="verticalAlign=top;align=left;overflow=fill;fontSize=12;fontFamily=Helvetica;html=1;" parent="1" vertex="1">
          <mxGeometry x="40" y="40" width="240" height="178" as="geometry" />
        </mxCell>
        <mxCell id="9e8dpLW64dKt-voAxynq-20" value="&lt;p style=&quot;margin: 0px ; margin-top: 4px ; text-align: center&quot;&gt;&lt;i&gt;&amp;lt;&amp;lt;Interface&amp;gt;&amp;gt;&lt;/i&gt;&lt;br&gt;&lt;b&gt;IDepartment&lt;/b&gt;&lt;br&gt;&lt;/p&gt;&lt;hr size=&quot;1&quot;&gt;&lt;p style=&quot;margin: 0px ; margin-left: 4px&quot;&gt;+ Employees: List&amp;lt;IEmployee&amp;gt;&lt;br&gt;+ ID: Int&lt;/p&gt;&lt;p style=&quot;margin: 0px ; margin-left: 4px&quot;&gt;+ Name: String&lt;br&gt;&lt;/p&gt;&lt;hr size=&quot;1&quot;&gt;&lt;p style=&quot;margin: 0px ; margin-left: 4px&quot;&gt;&lt;br&gt;&lt;/p&gt;" style="verticalAlign=top;align=left;overflow=fill;fontSize=12;fontFamily=Helvetica;html=1;" parent="1" vertex="1">
          <mxGeometry x="340" y="92" width="200" height="128" as="geometry" />
        </mxCell>
        <mxCell id="9e8dpLW64dKt-voAxynq-22" value="&lt;p style=&quot;margin: 0px ; margin-top: 4px ; text-align: center&quot;&gt;&lt;i&gt;&amp;lt;&amp;lt;Interface&amp;gt;&amp;gt;&lt;/i&gt;&lt;br&gt;&lt;b&gt;IEmployee&lt;/b&gt;&lt;br&gt;&lt;/p&gt;&lt;hr size=&quot;1&quot;&gt;&lt;p style=&quot;margin: 0px ; margin-left: 4px&quot;&gt;+ DateOfEmployment: DateTime&lt;br&gt;+ FirstName: String&lt;br&gt;&lt;/p&gt;&lt;p style=&quot;margin: 0px ; margin-left: 4px&quot;&gt;+ IsFired: Boolean&lt;br&gt;&lt;/p&gt;&lt;p style=&quot;margin: 0px ; margin-left: 4px&quot;&gt;+ LastName: String&lt;br&gt;&lt;/p&gt;&lt;p style=&quot;margin: 0px ; margin-left: 4px&quot;&gt;+ Role: IRole&lt;br&gt;&lt;/p&gt;&lt;hr size=&quot;1&quot;&gt;&lt;p style=&quot;margin: 0px ; margin-left: 4px&quot;&gt;+ FullName(): String&lt;/p&gt;" style="verticalAlign=top;align=left;overflow=fill;fontSize=12;fontFamily=Helvetica;html=1;" parent="1" vertex="1">
          <mxGeometry x="600" y="56" width="260" height="164" as="geometry" />
        </mxCell>
        <mxCell id="9e8dpLW64dKt-voAxynq-24" value="&lt;p style=&quot;margin: 0px ; margin-top: 4px ; text-align: center&quot;&gt;&lt;i&gt;&amp;lt;&amp;lt;Interface&amp;gt;&amp;gt;&lt;/i&gt;&lt;br&gt;&lt;b&gt;IRole&lt;/b&gt;&lt;br&gt;&lt;/p&gt;&lt;hr size=&quot;1&quot;&gt;&lt;div&gt;&amp;nbsp;+ ID: Int&lt;/div&gt;&lt;div&gt;&amp;nbsp;+ Title: String&lt;br&gt;&lt;/div&gt;&lt;hr size=&quot;1&quot;&gt;&lt;p style=&quot;margin: 0px ; margin-left: 4px&quot;&gt;&lt;/p&gt;" style="verticalAlign=top;align=left;overflow=fill;fontSize=12;fontFamily=Helvetica;html=1;" parent="1" vertex="1">
          <mxGeometry x="920" y="107" width="180" height="111" as="geometry" />
        </mxCell>
        <mxCell id="Tdp4J-3kLdHyA3gfGEW1-1" value="" style="endArrow=open;endFill=0;endSize=12;html=1;" parent="1" edge="1">
          <mxGeometry width="160" relative="1" as="geometry">
            <mxPoint x="860" y="700" as="sourcePoint" />
            <mxPoint x="919" y="699.71" as="targetPoint" />
            <Array as="points" />
          </mxGeometry>
        </mxCell>
        <mxCell id="Tdp4J-3kLdHyA3gfGEW1-2" value="" style="endArrow=open;endFill=0;endSize=12;html=1;exitX=0.521;exitY=1;exitDx=0;exitDy=0;exitPerimeter=0;" parent="1" source="O3MJyxwNwP9tG67ijSce-4" edge="1">
          <mxGeometry width="160" relative="1" as="geometry">
            <mxPoint x="682" y="770" as="sourcePoint" />
            <mxPoint x="682" y="829" as="targetPoint" />
            <Array as="points" />
          </mxGeometry>
        </mxCell>
        <mxCell id="Tdp4J-3kLdHyA3gfGEW1-3" value="" style="endArrow=open;endFill=0;endSize=12;html=1;dashed=1;entryX=0.484;entryY=1.051;entryDx=0;entryDy=0;entryPerimeter=0;" parent="1" target="9e8dpLW64dKt-voAxynq-15" edge="1">
          <mxGeometry width="160" relative="1" as="geometry">
            <mxPoint x="539" y="650" as="sourcePoint" />
            <mxPoint x="160" y="605" as="targetPoint" />
            <Array as="points">
              <mxPoint x="539" y="590" />
              <mxPoint x="156" y="590" />
            </Array>
          </mxGeometry>
        </mxCell>
        <mxCell id="Tdp4J-3kLdHyA3gfGEW1-4" value="" style="endArrow=open;html=1;startArrow=diamondThin;startFill=0;strokeWidth=1;endSize=12;startSize=12;endFill=0;" parent="1" edge="1">
          <mxGeometry width="50" height="50" relative="1" as="geometry">
            <mxPoint x="860" y="380" as="sourcePoint" />
            <mxPoint x="920" y="379.58000000000015" as="targetPoint" />
          </mxGeometry>
        </mxCell>
        <mxCell id="Tdp4J-3kLdHyA3gfGEW1-7" value="" style="endArrow=block;dashed=1;endFill=0;endSize=12;html=1;exitX=0.5;exitY=0;exitDx=0;exitDy=0;" parent="1" source="9e8dpLW64dKt-voAxynq-5" edge="1">
          <mxGeometry width="160" relative="1" as="geometry">
            <mxPoint x="90" y="240" as="sourcePoint" />
            <mxPoint x="160" y="220" as="targetPoint" />
          </mxGeometry>
        </mxCell>
        <mxCell id="Z-J2dvbDeJ1SSTfuHnfh-51" value="" style="endArrow=open;endFill=0;endSize=12;html=1;dashed=1;" parent="1" edge="1">
          <mxGeometry width="160" relative="1" as="geometry">
            <mxPoint x="230" y="970" as="sourcePoint" />
            <mxPoint x="230" y="908" as="targetPoint" />
            <Array as="points" />
          </mxGeometry>
        </mxCell>
        <mxCell id="Tdp4J-3kLdHyA3gfGEW1-10" value="" style="endArrow=open;endFill=0;endSize=12;html=1;dashed=1;exitX=-0.004;exitY=0.276;exitDx=0;exitDy=0;exitPerimeter=0;" parent="1" source="O3MJyxwNwP9tG67ijSce-17" edge="1">
          <mxGeometry width="160" relative="1" as="geometry">
            <mxPoint x="480" y="870" as="sourcePoint" />
            <mxPoint x="410" y="870" as="targetPoint" />
            <Array as="points" />
          </mxGeometry>
        </mxCell>
        <mxCell id="Tdp4J-3kLdHyA3gfGEW1-11" value="" style="endArrow=open;endFill=0;endSize=12;html=1;" parent="1" edge="1">
          <mxGeometry width="160" relative="1" as="geometry">
            <mxPoint x="490" y="699.8" as="sourcePoint" />
            <mxPoint x="410" y="699.8" as="targetPoint" />
            <Array as="points" />
          </mxGeometry>
        </mxCell>
        <mxCell id="Tdp4J-3kLdHyA3gfGEW1-12" value="" style="endArrow=open;endFill=0;endSize=12;html=1;" parent="1" edge="1">
          <mxGeometry width="160" relative="1" as="geometry">
            <mxPoint x="215" y="650" as="sourcePoint" />
            <mxPoint x="450" y="455" as="targetPoint" />
            <Array as="points">
              <mxPoint x="215" y="610" />
              <mxPoint x="450" y="610" />
            </Array>
          </mxGeometry>
        </mxCell>
        <mxCell id="Tdp4J-3kLdHyA3gfGEW1-17" value="" style="endArrow=open;endFill=0;endSize=12;html=1;" parent="1" edge="1">
          <mxGeometry width="160" relative="1" as="geometry">
            <mxPoint x="440" y="610" as="sourcePoint" />
            <mxPoint x="740" y="530" as="targetPoint" />
            <Array as="points">
              <mxPoint x="740" y="610" />
            </Array>
          </mxGeometry>
        </mxCell>
        <mxCell id="Tdp4J-3kLdHyA3gfGEW1-18" value="" style="endArrow=open;endFill=0;endSize=12;html=1;" parent="1" edge="1">
          <mxGeometry width="160" relative="1" as="geometry">
            <mxPoint x="720" y="610" as="sourcePoint" />
            <mxPoint x="1010" y="420" as="targetPoint" />
            <Array as="points">
              <mxPoint x="1010" y="610" />
            </Array>
          </mxGeometry>
        </mxCell>
        <mxCell id="c_bAQXi0AVxzguG1a42T-4" value="" style="endArrow=block;dashed=1;endFill=0;endSize=12;html=1;exitX=0.5;exitY=0;exitDx=0;exitDy=0;" parent="1" edge="1">
          <mxGeometry width="160" relative="1" as="geometry">
            <mxPoint x="439.66000000000025" y="279" as="sourcePoint" />
            <mxPoint x="439.6599999999998" y="219.9999999999999" as="targetPoint" />
          </mxGeometry>
        </mxCell>
        <mxCell id="c_bAQXi0AVxzguG1a42T-5" value="" style="endArrow=block;dashed=1;endFill=0;endSize=12;html=1;exitX=0.5;exitY=0;exitDx=0;exitDy=0;" parent="1" edge="1">
          <mxGeometry width="160" relative="1" as="geometry">
            <mxPoint x="740.0000000000002" y="279" as="sourcePoint" />
            <mxPoint x="739.9999999999998" y="219.9999999999999" as="targetPoint" />
          </mxGeometry>
        </mxCell>
        <mxCell id="c_bAQXi0AVxzguG1a42T-6" value="" style="endArrow=block;dashed=1;endFill=0;endSize=12;html=1;exitX=0.5;exitY=0;exitDx=0;exitDy=0;" parent="1" edge="1">
          <mxGeometry width="160" relative="1" as="geometry">
            <mxPoint x="1014.6600000000002" y="279" as="sourcePoint" />
            <mxPoint x="1014.6599999999997" y="219.9999999999999" as="targetPoint" />
          </mxGeometry>
        </mxCell>
      </root>
    </mxGraphModel>
  </diagram>
</mxfile>
